<svg width="45" height="45" viewBox="0 0 45 45" fill="none" xmlns="http://www.w3.org/2000/svg">
<path d="M21.8996 44.4666C21.984 45.1778 23.016 45.1778 23.1005 44.4666L23.8084 38.5004C24.7225 30.7965 30.7965 24.7225 38.5004 23.8084L44.4665 23.1004C45.1778 23.016 45.1778 21.984 44.4665 21.8995L38.5004 21.1916C30.7965 20.2775 24.7225 14.2035 23.8084 6.49965L23.1005 0.533455C23.016 -0.177814 21.984 -0.177814 21.8996 0.533455L21.1916 6.49965C20.2775 14.2035 14.2035 20.2775 6.49958 21.1916L0.533388 21.8995C-0.177796 21.984 -0.177796 23.016 0.533388 23.1004L6.49958 23.8084C14.2035 24.7225 20.2775 30.7965 21.1916 38.5004L21.8996 44.4666Z" fill="#C9A65C"/>
</svg>
