<svg width="147" height="46" viewBox="0 0 147 46" fill="none" xmlns="http://www.w3.org/2000/svg">
<path d="M9.73313 32.7629C9.77067 33.079 10.2293 33.079 10.2669 32.7629L10.5815 30.1113C10.9878 26.6873 13.6873 23.9878 17.1113 23.5815L19.7629 23.2669C20.079 23.2293 20.079 22.7707 19.7629 22.7331L17.1113 22.4185C13.6873 22.0122 10.9878 19.3127 10.5815 15.8887L10.2669 13.2371C10.2293 12.921 9.77067 12.921 9.73313 13.2371L9.41851 15.8887C9.01224 19.3127 6.31269 22.0122 2.8887 22.4185L0.237062 22.7331C-0.0790205 22.7707 -0.0790205 23.2293 0.237062 23.2669L2.8887 23.5815C6.31269 23.9878 9.01224 26.6873 9.41851 30.1113L9.73313 32.7629Z" fill="white"/>
<path d="M36.448 24.68H39.104C42.784 24.68 44.544 22.472 44.544 19.528C44.544 16.456 42.88 14.728 39.264 14.728H36.48C36.448 17.864 36.448 21 36.448 24.68ZM48.096 35.592L50.88 35.848V37C50.08 37.256 49.184 37.384 47.968 37.384C45.568 37.384 44.48 36.712 44.096 34.888L42.752 29.544C42.112 26.792 41.088 25.96 38.24 25.96H36.448C36.448 29.256 36.448 32.392 36.48 35.496L39.712 35.848V37H29.536V35.848L32.704 35.496C32.768 32.392 32.768 29.224 32.768 26.024V24.392C32.768 21.256 32.768 18.056 32.704 14.92L29.536 14.568V13.416H39.776C45.152 13.416 48.224 15.688 48.224 19.528C48.224 22.248 46.304 24.712 41.984 25.448C44.736 25.928 45.888 27.304 46.592 30.12L48.096 35.592ZM69.5205 30.664H71.2165L71.1205 37H52.8485V35.848L56.0165 35.496C56.0805 32.392 56.0805 29.224 56.0805 26.024V24.392C56.0805 21.256 56.0805 18.056 56.0165 14.92L52.8485 14.568V13.416H70.4485L70.5445 19.592H68.8485L67.7925 14.824H59.8245C59.7925 17.896 59.7925 21.032 59.7925 24.328H64.8805L65.3605 20.872H66.8325V29H65.3605L64.9125 25.64H59.7925C59.7925 29.192 59.7925 32.424 59.8245 35.592H68.4645L69.5205 30.664ZM91.319 30.504H93.207L93.175 35.784C91.031 37 88.727 37.576 86.103 37.576C79.063 37.576 74.007 32.808 74.007 25.224C74.007 17.672 79.319 12.84 86.167 12.84C88.439 12.84 90.647 13.352 92.887 14.568V19.912H91.031L89.943 15.016C88.855 14.472 87.767 14.248 86.615 14.248C81.815 14.248 78.103 18.024 78.103 25.224C78.103 32.488 81.591 36.104 86.551 36.104C87.799 36.104 89.015 35.912 90.231 35.336L91.319 30.504ZM101.76 27.944H108.864L105.248 17L101.76 27.944ZM115.104 35.528L117.856 35.848V37H108.032V35.848L111.328 35.464L109.28 29.256H101.344L99.3595 35.432L102.688 35.848V37H95.0075V35.848L97.8235 35.432L105.184 13.288H107.552L115.104 35.528Z" fill="white"/>
<path d="M136.733 13.2371C136.771 12.921 137.229 12.921 137.267 13.2371L137.581 15.8887C137.988 19.3127 140.687 22.0122 144.111 22.4185L146.763 22.7331C147.079 22.7707 147.079 23.2293 146.763 23.2669L144.111 23.5815C140.687 23.9878 137.988 26.6873 137.581 30.1113L137.267 32.7629C137.229 33.079 136.771 33.079 136.733 32.7629L136.419 30.1113C136.012 26.6873 133.313 23.9878 129.889 23.5815L127.237 23.2669C126.921 23.2293 126.921 22.7707 127.237 22.7331L129.889 22.4185C133.313 22.0122 136.012 19.3127 136.419 15.8887L136.733 13.2371Z" fill="white"/>
</svg>
